<svg width="399" height="141" viewBox="0 0 399 141" fill="none" xmlns="http://www.w3.org/2000/svg">
<path d="M169.624 58.7041C168.619 60.7121 167.248 62.4601 165.547 63.9001C163.826 65.3547 161.831 66.4987 159.618 67.2961C157.396 68.0961 155.103 68.5001 152.799 68.5001H121.09V35.7561H152.799C155.1 35.7561 157.366 36.1601 159.535 36.9561C161.704 37.7547 163.679 38.8974 165.403 40.3561C167.111 41.8014 168.511 43.5574 169.564 45.5747C170.594 47.5494 171.116 49.7307 171.116 52.0574C171.116 54.4854 170.614 56.7241 169.624 58.7041ZM157.696 98.7427H121.09V81.2667H153.663C155.242 81.2667 157.335 81.3627 159.884 81.5494C162.363 81.7347 164.798 82.1761 167.122 82.8601C169.364 83.5201 171.322 84.4947 172.936 85.7587C174.328 86.8494 175.004 88.2627 175.004 90.0787C175.004 91.9801 174.512 93.4161 173.496 94.4694C172.374 95.6347 170.924 96.5467 169.187 97.1827C167.352 97.8534 165.403 98.2827 163.39 98.4627C161.3 98.6494 159.386 98.7427 157.696 98.7427ZM175.292 72.2867C177.887 69.8027 179.974 66.9081 181.502 63.6654C183.176 60.1121 184.026 56.2067 184.026 52.0574C184.026 47.8027 183.123 43.8374 181.342 40.2694C179.579 36.7454 177.23 33.6587 174.362 31.0921C171.498 28.5307 168.162 26.5174 164.44 25.1067C160.724 23.7027 156.808 22.9894 152.799 22.9894H114.635C112.868 22.9894 111.335 23.6281 110.076 24.8867C108.818 26.1454 108.179 27.6787 108.179 29.4454V105.199C108.179 106.968 108.818 108.503 110.075 109.756C111.33 111.016 112.864 111.655 114.635 111.655H157.696C161.046 111.655 164.486 111.332 167.919 110.692C171.422 110.043 174.674 108.923 177.586 107.365C180.576 105.767 183.064 103.541 184.976 100.752C186.927 97.9067 187.915 94.3147 187.915 90.0787C187.915 85.0747 186.435 81.0027 183.518 77.9774C181.259 75.6387 178.5 73.7307 175.292 72.2867Z" fill="#231F20"/>
<path d="M270.054 22.9892H193.434C191.655 22.9892 190.135 23.6372 188.922 24.9146C187.728 26.1692 187.123 27.6932 187.123 29.4452C187.123 31.2146 187.738 32.7252 188.947 33.9306C190.155 35.1412 191.666 35.7572 193.434 35.7572H225.29V106.208C225.29 107.992 225.938 109.509 227.214 110.72C228.464 111.913 229.988 112.519 231.743 112.519C233.496 112.519 235.022 111.913 236.275 110.72C237.551 109.507 238.199 107.989 238.199 106.208V35.7572H270.054C271.819 35.7572 273.33 35.1426 274.539 33.9319C275.751 32.7212 276.364 31.2106 276.364 29.4452C276.364 27.6972 275.76 26.1732 274.566 24.9146C273.35 23.6372 271.831 22.9892 270.054 22.9892Z" fill="#231F20"/>
<path d="M396.182 23.8764C394.922 22.6204 393.387 21.9818 391.626 21.9818C389.747 21.9818 388.147 22.7138 386.994 24.0978L343.092 71.5098L299.49 24.4031C298.243 22.8191 296.538 21.9818 294.556 21.9818C292.79 21.9818 291.256 22.6204 289.998 23.8791C288.739 25.1364 288.1 26.6711 288.1 28.4364V106.208C288.1 107.991 288.75 109.51 290.024 110.72C291.276 111.912 292.8 112.518 294.556 112.518C296.323 112.518 297.832 111.904 299.042 110.694C300.254 109.483 300.867 107.974 300.867 106.208V44.7964L338.347 85.2324L338.387 85.2751C339.739 86.6284 341.322 87.3151 343.091 87.3151C344.73 87.3151 346.194 86.7444 347.446 85.6191L347.498 85.5711L385.314 44.7951V106.208C385.314 107.976 385.927 109.487 387.136 110.692C388.346 111.904 389.855 112.518 391.626 112.518C393.376 112.518 394.902 111.912 396.155 110.722C397.431 109.507 398.08 107.99 398.08 106.208V28.4364C398.08 26.6724 397.443 25.1404 396.182 23.8764Z" fill="#231F20"/>
<path d="M316.754 89.5877L338.385 112.97C339.583 114.268 341.059 114.96 342.77 115.026C344.482 115.093 346.007 114.518 347.305 113.32C348.586 112.132 349.295 110.653 349.409 108.922C349.519 107.161 348.963 105.608 347.757 104.302L295.729 48.057C294.519 46.749 293.013 46.0744 291.251 46.0504C289.521 46.0277 287.99 46.6184 286.705 47.8064C285.406 49.009 284.714 50.4864 284.651 52.1917C284.582 53.901 285.157 55.4277 286.358 56.7264L307.987 80.1104L316.754 89.5877Z" fill="#EF4231"/>
<path d="M5.13067 45.8615L45.6733 22.7429L85.9627 46.2949L85.712 92.9629L45.1707 116.079L4.88 92.5269L5.13067 45.8615Z" fill="#ED1B2F"/>
<path d="M326.669 43.177L348.299 66.561C349.499 67.8583 350.974 68.549 352.686 68.6143C354.398 68.6823 355.922 68.1076 357.219 66.909C358.501 65.721 359.21 64.2423 359.323 62.5103C359.434 60.7503 358.878 59.197 357.671 57.8916L305.643 1.6463C304.97 0.916962 304.203 0.384963 303.353 0.0516297H298.754C297.983 0.344963 297.27 0.794295 296.619 1.39563C295.321 2.5983 294.629 4.07563 294.566 5.78096C294.497 7.4903 295.071 9.01696 296.273 10.3156L317.902 33.6996L326.669 43.177Z" fill="#48C0B7"/>
<path d="M45.8255 5.70413C45.8255 5.70413 76.9215 43.5148 45.2681 109.345L90.5641 83.1975V31.8548L45.8255 5.70413Z" fill="#48C0B7"/>
<path d="M45.0179 133.118C45.0179 133.118 13.9219 95.3076 45.5752 29.4756L0.27919 55.6236V106.966L45.0179 133.118Z" fill="#48C0B7"/>
<path d="M121.142 135.932C121.142 134.013 119.617 132.462 117.747 132.462H111.622V139.4H117.747C119.617 139.4 121.142 137.849 121.142 135.932ZM111.622 124.641V131.234H117.182C118.953 131.234 120.403 129.757 120.403 127.937C120.403 126.118 118.953 124.641 117.182 124.641H111.622ZM122.446 135.932C122.446 138.538 120.355 140.629 117.747 140.629H110.319V123.412H117.182C119.691 123.412 121.707 125.453 121.707 127.937C121.707 129.61 120.822 130.988 119.494 131.701C121.215 132.365 122.446 133.964 122.446 135.932Z" fill="#231F20"/>
<path d="M126.939 132.34H132.425C134.515 132.34 136.213 130.619 136.213 128.503C136.213 126.363 134.515 124.642 132.425 124.642H126.939V132.34ZM132.375 133.57H126.939V140.63H125.635V123.412H132.425C135.229 123.412 137.517 125.699 137.517 128.503C137.517 130.84 135.918 132.808 133.729 133.398L138.009 140.63H136.507L132.375 133.57Z" fill="#231F20"/>
<path d="M142.011 140.629H140.707V123.412H142.011V140.629Z" fill="#231F20"/>
<path d="M158.908 123.412V140.629H157.752L147.593 125.823V140.629H146.289V123.412H147.421L157.604 138.219V123.412H158.908Z" fill="#231F20"/>
<path d="M176.488 132.02C176.488 127.936 173.708 124.641 169.649 124.641H164.484V139.399H169.649C173.708 139.399 176.488 136.104 176.488 132.02ZM177.766 132.02C177.766 136.768 174.397 140.629 169.649 140.629H163.181V123.412H169.649C174.397 123.412 177.766 127.272 177.766 132.02Z" fill="#231F20"/>
<path d="M190.967 139.399V140.63H181.054V123.412H190.845V124.642H182.358V131.331H190.229V132.562H182.358V139.399H190.967Z" fill="#231F20"/>
<path d="M193.126 136.842L194.258 136.178C194.849 138.244 196.594 139.646 199.424 139.646C202.301 139.646 203.753 138.17 203.753 136.203C203.753 134.136 201.932 133.348 199.3 132.512C196.422 131.578 193.84 130.766 193.84 127.764C193.84 124.936 196.126 123.142 199.054 123.142C201.882 123.142 203.753 124.764 204.589 126.758L203.482 127.371C202.842 125.822 201.514 124.395 199.054 124.395C196.669 124.395 195.168 125.798 195.168 127.715C195.168 129.782 196.914 130.422 199.374 131.234C202.424 132.242 205.081 133.202 205.081 136.178C205.081 139.031 202.842 140.9 199.424 140.9C196.201 140.9 193.913 139.276 193.126 136.842Z" fill="#231F20"/>
<path d="M224.749 128.749C224.749 126.363 223.053 124.641 220.69 124.641H216.141V132.833H220.69C223.053 132.833 224.749 131.111 224.749 128.749ZM226.054 128.749C226.054 131.775 223.79 134.061 220.69 134.061H216.141V140.629H214.835V123.412H220.69C223.79 123.412 226.054 125.699 226.054 128.749Z" fill="#231F20"/>
<path d="M230.573 132.34H236.057C238.149 132.34 239.845 130.619 239.845 128.503C239.845 126.363 238.149 124.642 236.057 124.642H230.573V132.34ZM236.009 133.57H230.573V140.63H229.268V123.412H236.057C238.862 123.412 241.15 125.699 241.15 128.503C241.15 130.84 239.55 132.808 237.362 133.398L241.641 140.63H240.141L236.009 133.57Z" fill="#231F20"/>
<path d="M259.813 132.02C259.813 127.789 256.491 124.395 252.235 124.395C247.981 124.395 244.661 127.789 244.661 132.02C244.661 136.251 247.981 139.645 252.235 139.645C256.491 139.645 259.813 136.251 259.813 132.02ZM243.357 132.02C243.357 127.101 247.267 123.141 252.235 123.141C257.205 123.141 261.117 127.101 261.117 132.02C261.117 136.939 257.205 140.9 252.235 140.9C247.267 140.9 243.357 136.939 243.357 132.02Z" fill="#231F20"/>
<path d="M279.973 140.629H278.669V125.329L272.298 135.907H272.077L265.707 125.329V140.629H264.402V123.412H266.026L272.175 133.595L278.326 123.412H279.973V140.629Z" fill="#231F20"/>
<path d="M299.717 132.02C299.717 127.789 296.396 124.395 292.14 124.395C287.885 124.395 284.565 127.789 284.565 132.02C284.565 136.251 287.885 139.645 292.14 139.645C296.396 139.645 299.717 136.251 299.717 132.02ZM283.261 132.02C283.261 127.101 287.172 123.141 292.14 123.141C297.109 123.141 301.021 127.101 301.021 132.02C301.021 136.939 297.109 140.9 292.14 140.9C287.172 140.9 283.261 136.939 283.261 132.02Z" fill="#231F20"/>
<path d="M303.324 132.02C303.324 127.101 307.038 123.141 312.278 123.141C315.451 123.141 318.231 124.765 319.656 127.272L318.5 127.936C317.368 125.823 314.983 124.395 312.278 124.395C307.751 124.395 304.628 127.789 304.628 132.02C304.628 136.251 307.751 139.645 312.278 139.645C315.008 139.645 317.418 138.195 318.55 136.029L319.706 136.695C318.303 139.227 315.5 140.9 312.278 140.9C307.038 140.9 303.324 136.939 303.324 132.02Z" fill="#231F20"/>
<path d="M324.077 140.629H322.772V123.412H324.077V140.629Z" fill="#231F20"/>
<path d="M343.825 132.02C343.825 127.789 340.504 124.395 336.248 124.395C331.993 124.395 328.673 127.789 328.673 132.02C328.673 136.251 331.993 139.645 336.248 139.645C340.504 139.645 343.825 136.251 343.825 132.02ZM327.369 132.02C327.369 127.101 331.28 123.141 336.248 123.141C341.217 123.141 345.129 127.101 345.129 132.02C345.129 136.939 341.217 140.9 336.248 140.9C331.28 140.9 327.369 136.939 327.369 132.02Z" fill="#231F20"/>
<path d="M361.034 123.412V140.629H359.879L349.72 125.823V140.629H348.415V123.412H349.547L359.73 138.219V123.412H361.034Z" fill="#231F20"/>
<path d="M374.753 135.021L370.917 125.009L367.079 135.021H374.753ZM375.221 136.251H366.587L364.914 140.629H363.537L370.227 123.412H371.605L378.271 140.629H376.893L375.221 136.251Z" fill="#231F20"/>
<path d="M382.077 140.629H380.772V123.412H382.077V140.629Z" fill="#231F20"/>
<path d="M385.074 136.842L386.206 136.178C386.796 138.244 388.544 139.646 391.372 139.646C394.249 139.646 395.701 138.17 395.701 136.203C395.701 134.136 393.88 133.348 391.249 132.512C388.37 131.578 385.788 130.766 385.788 127.764C385.788 124.936 388.076 123.142 391.002 123.142C393.83 123.142 395.701 124.764 396.537 126.758L395.43 127.371C394.79 125.822 393.462 124.395 391.002 124.395C388.616 124.395 387.116 125.798 387.116 127.715C387.116 129.782 388.862 130.422 391.322 131.234C394.373 132.242 397.029 133.202 397.029 136.178C397.029 139.031 394.79 140.9 391.372 140.9C388.149 140.9 385.862 139.276 385.074 136.842Z" fill="#231F20"/>
</svg>
